<svg width="535" height="274" viewBox="0 0 535 274" fill="none" xmlns="http://www.w3.org/2000/svg">
<g opacity="0.05">
<path d="M436.811 42L599.343 203.587H517.835L355.303 42H436.811Z" fill="#0E4F94"/>
<path d="M434.181 56.1626L652.966 273.675H524.789L306 56.1626H434.181Z" fill="#0E4F94"/>
<path d="M533.503 111.118L647.45 224.403H580.694L466.743 111.118H533.503Z" fill="#0E4F94"/>
<path style="mix-blend-mode:multiply" d="M533.503 111.118L647.45 224.403H580.694L466.743 111.118H533.503Z" fill="url(#paint0_linear_246_1674)"/>
<path style="mix-blend-mode:screen" opacity="0.92" d="M434.181 56.1626L652.966 273.675H524.789L306 56.1626H434.181Z" fill="url(#paint1_linear_246_1674)"/>
<path style="mix-blend-mode:screen" opacity="0.92" d="M436.811 42L599.343 203.587H517.835L355.303 42H436.811Z" fill="url(#paint2_linear_246_1674)"/>
<path d="M222.693 0L441.482 217.513H313.3L94.5156 0H222.693Z" fill="url(#paint3_linear_246_1674)"/>
<path style="mix-blend-mode:screen" opacity="0.92" d="M189.529 52.6226L295.724 158.199H233.51L127.314 52.6226H189.529Z" fill="url(#paint4_linear_246_1674)"/>
<path style="mix-blend-mode:multiply" d="M250.026 52.6226L385.331 187.143H306.058L170.752 52.6226H250.026Z" fill="url(#paint5_linear_246_1674)"/>
<path d="M123.609 81.4951L220.237 177.56H163.625L67 81.4951H123.609Z" fill="#0E4F94"/>
<path style="mix-blend-mode:screen" opacity="0.92" d="M56.6086 26.4951L153.237 122.56H96.6247L0 26.4951H56.6086Z" fill="url(#paint6_linear_246_1674)"/>
<path d="M251.295 189L308.124 245.498H274.829L218 189H251.295Z" fill="#0E4F94"/>
<path style="mix-blend-mode:screen" opacity="0.92" d="M229.012 209.225L285.842 265.723H252.546L195.717 209.225H229.012Z" fill="url(#paint7_linear_246_1674)"/>
</g>
<defs>
<linearGradient id="paint0_linear_246_1674" x1="485.685" y1="96.3443" x2="561.617" y2="172.276" gradientUnits="userSpaceOnUse">
<stop stop-color="#288BC3"/>
<stop offset="1" stop-color="white"/>
</linearGradient>
<linearGradient id="paint1_linear_246_1674" x1="545.257" y1="231.382" x2="375.622" y2="59.9619" gradientUnits="userSpaceOnUse">
<stop stop-color="#288BC3"/>
<stop offset="1" stop-color="#76CCD2"/>
</linearGradient>
<linearGradient id="paint2_linear_246_1674" x1="422.538" y1="60.7805" x2="534.012" y2="186.952" gradientUnits="userSpaceOnUse">
<stop/>
<stop offset="1" stop-color="#76CCD2"/>
</linearGradient>
<linearGradient id="paint3_linear_246_1674" x1="250.238" y1="90.9935" x2="359.758" y2="200.517" gradientUnits="userSpaceOnUse">
<stop stop-color="#288BC3"/>
<stop offset="1" stop-color="#26B2CD"/>
</linearGradient>
<linearGradient id="paint4_linear_246_1674" x1="246.752" y1="152.194" x2="173.415" y2="54.8148" gradientUnits="userSpaceOnUse">
<stop stop-color="#288BC3"/>
<stop offset="1" stop-color="#76CCD2"/>
</linearGradient>
<linearGradient id="paint5_linear_246_1674" x1="204.268" y1="186.185" x2="279.912" y2="118.204" gradientUnits="userSpaceOnUse">
<stop stop-color="#288BC3"/>
<stop offset="1" stop-color="white"/>
</linearGradient>
<linearGradient id="paint6_linear_246_1674" x1="114.18" y1="112.091" x2="-4.35483" y2="-6.44387" gradientUnits="userSpaceOnUse">
<stop/>
<stop offset="1" stop-color="#76CCD2"/>
</linearGradient>
<linearGradient id="paint7_linear_246_1674" x1="262.872" y1="259.566" x2="193.16" y2="189.851" gradientUnits="userSpaceOnUse">
<stop/>
<stop offset="1" stop-color="#76CCD2"/>
</linearGradient>
</defs>
</svg>
