<svg width="40" height="41" viewBox="0 0 40 41" fill="none" xmlns="http://www.w3.org/2000/svg">
<g clipPath="url(#clip0_97_1198)">
<circle cx="20" cy="20.3335" r="20" fill="white"/>
<path d="M15.5156 27.3335H12.2461V16.8218H15.5156V27.3335ZM13.8633 15.4155C12.8438 15.4155 12 14.5366 12 13.4819C12 12.4624 12.8438 11.6187 13.8633 11.6187C14.918 11.6187 15.7617 12.4624 15.7617 13.4819C15.7617 14.5366 14.918 15.4155 13.8633 15.4155ZM27.7148 27.3335H24.4805V22.2358C24.4805 21.0054 24.4453 19.4585 22.7578 19.4585C21.0703 19.4585 20.8242 20.7593 20.8242 22.1304V27.3335H17.5547V16.8218H20.6836V18.2632H20.7188C21.1758 17.4546 22.2305 16.5757 23.8125 16.5757C27.1172 16.5757 27.75 18.7554 27.75 21.5679V27.3335H27.7148Z" fill="#0E4F94"/>
</g>
<defs>
<clipPath id="clip0_97_1198">
<rect width="40" height="40" fill="white" transform="translate(0 0.333496)"/>
</clipPath>
</defs>
</svg>
