<svg width="40" height="41" viewBox="0 0 40 41" fill="none" xmlns="http://www.w3.org/2000/svg">
<g clip-path="url(#clip0_97_1192)">
<circle cx="20" cy="20.3335" r="20" fill="white"/>
<path d="M27.1367 16.9272C27.1367 17.103 27.1367 17.2437 27.1367 17.4194C27.1367 22.3062 23.4453 27.896 16.6602 27.896C14.5508 27.896 12.6172 27.2983 11 26.2437C11.2812 26.2788 11.5625 26.314 11.8789 26.314C13.6016 26.314 15.1836 25.7163 16.4492 24.7319C14.832 24.6968 13.4609 23.6421 13.0039 22.1655C13.25 22.2007 13.4609 22.2358 13.707 22.2358C14.0234 22.2358 14.375 22.1655 14.6562 22.0952C12.9688 21.7437 11.7031 20.2671 11.7031 18.4741V18.439C12.1953 18.7202 12.793 18.8608 13.3906 18.896C12.3711 18.228 11.7383 17.103 11.7383 15.8374C11.7383 15.1343 11.9141 14.5015 12.2305 13.9741C14.0586 16.189 16.8008 17.6655 19.8594 17.8413C19.7891 17.5601 19.7539 17.2788 19.7539 16.9976C19.7539 14.9585 21.4062 13.3062 23.4453 13.3062C24.5 13.3062 25.4492 13.728 26.1523 14.4663C26.9609 14.2905 27.7695 13.9741 28.4727 13.5522C28.1914 14.4312 27.6289 15.1343 26.8555 15.5913C27.5938 15.521 28.332 15.3101 28.9648 15.0288C28.4727 15.7671 27.8398 16.3999 27.1367 16.9272Z" fill="#0E4F94"/>
</g>
<defs>
<clipPath id="clip0_97_1192">
<rect width="40" height="40" fill="white" transform="translate(0 0.333496)"/>
</clipPath>
</defs>
</svg>
