<svg width="40" height="41" viewBox="0 0 40 41" fill="none" xmlns="http://www.w3.org/2000/svg">
<g clipPath="url(#clip0_97_1201)">
<circle cx="20" cy="20.3335" r="20" fill="white"/>
<path d="M29.3008 15.978C29.7227 17.4546 29.7227 20.6187 29.7227 20.6187C29.7227 20.6187 29.7227 23.7476 29.3008 25.2593C29.0898 26.103 28.4219 26.7358 27.6133 26.9468C26.1016 27.3335 20.125 27.3335 20.125 27.3335C20.125 27.3335 14.1133 27.3335 12.6016 26.9468C11.793 26.7358 11.125 26.103 10.9141 25.2593C10.4922 23.7476 10.4922 20.6187 10.4922 20.6187C10.4922 20.6187 10.4922 17.4546 10.9141 15.978C11.125 15.1343 11.793 14.4663 12.6016 14.2554C14.1133 13.8335 20.125 13.8335 20.125 13.8335C20.125 13.8335 26.1016 13.8335 27.6133 14.2554C28.4219 14.4663 29.0898 15.1343 29.3008 15.978ZM18.1562 23.4663L23.1484 20.6187L18.1562 17.771V23.4663Z" fill="#0E4F94"/>
</g>
<defs>
<clipPath id="clip0_97_1201">
<rect width="40" height="40" fill="white" transform="translate(0 0.333496)"/>
</clipPath>
</defs>
</svg>
