<svg width="17" height="13" viewBox="0 0 17 13" fill="none" xmlns="http://www.w3.org/2000/svg">
<path d="M2.125 1.625C1.83281 1.625 1.59375 1.86875 1.59375 2.16667V2.91484L7.32129 7.70859C8.00859 8.28412 8.99473 8.28412 9.68203 7.70859L15.4062 2.91484V2.16667C15.4062 1.86875 15.1672 1.625 14.875 1.625H2.125ZM1.59375 5.01719V10.8333C1.59375 11.1313 1.83281 11.375 2.125 11.375H14.875C15.1672 11.375 15.4062 11.1313 15.4062 10.8333V5.01719L10.6914 8.96458C9.41641 10.031 7.58027 10.031 6.30859 8.96458L1.59375 5.01719ZM0 2.16667C0 0.971615 0.95293 0 2.125 0H14.875C16.0471 0 17 0.971615 17 2.16667V10.8333C17 12.0284 16.0471 13 14.875 13H2.125C0.95293 13 0 12.0284 0 10.8333V2.16667Z" fill="#0E4F94"/>
</svg>
